#!OML:ASF F:\VICON\USERDATA\INSTALL\rory3\rory3.ASF
:FULLY-SPECIFIED
:DEGREES
2065
root 2.70357 18.0562 0.599702 7.29144 16.3366 -3.239
lowerback 8.06424 4.13426 -0.0506712
upperback 1.5429 5.48417 -0.204021
thorax -2.89172 2.72639 -0.751347
lowerneck -25.2378 -10.2092 -10.2279
upperneck 2.19023 -11.2514 9.44381
head 5.66458 -4.86787 3.26071
rclavicle -1.76421e-014 -4.96962e-015
rhumerus 32.7228 -4.99128 -40.4867
rradius 57.1047
rwrist 43.4155
rhand -64.7669 0.00180399
rfingers 7.12502
rthumb -36.6771 -26.1455
lclavicle -1.76421e-014 -4.96962e-015
lhumerus -36.822 6.19714 69.5032
lradius 54.7094
lwrist -1.64763
lhand -20.47 19.9141
lfingers 7.12502
lthumb 5.88606 49.8123
rfemur -13.1351 -4.39426 11.1376
rtibia 25.4607
rfoot -14.9313 -16.827
rtoes 4.5706
lfemur -17.2053 -4.28966 -15.2783
ltibia 24.6553
lfoot -12.2747 -0.659086
ltoes -20.2287
2066
root 2.7061 18.056 0.594453 7.2144 16.3345 -3.4489
lowerback 8.0046 4.21199 -0.17858
upperback 1.54067 5.57707 -0.197373
thorax -2.87295 2.77377 -0.679086
lowerneck -25.2865 -10.347 -10.568
upperneck 2.07039 -11.3459 9.72279
head 5.67962 -4.89412 3.38802
rclavicle 9.88954e-015 1.70955e-014
rhumerus 31.8299 -4.17137 -40.8745
rradius 56.8781
rwrist 43.2863
rhand -65.1595 2.03689
rfingers 7.12502
rthumb -37.0485 -24.015
lclavicle 9.88954e-015 1.70955e-014
lhumerus -36.4009 5.86003 69.82
lradius 54.4892
lwrist -1.93925
lhand -22.6789 18.7023
lfingers 7.12502
lthumb 3.75315 48.649
rfemur -13.2043 -4.48416 11.3202
rtibia 25.5839
rfoot -14.7247 -16.6345
rtoes 4.64447
lfemur -17.2346 -4.32516 -15.0682
ltibia 24.7363
lfoot -12.2989 -0.559751
ltoes -20.3818
2067
root 2.7088 18.0542 0.588357 7.13774 16.3839 -3.568
lowerback 8.05896 4.31088 -0.335779
upperback 1.48439 5.69197 -0.277764
thorax -2.96754 2.83122 -0.694261
lowerneck -25.2325 -10.5081 -10.7264
upperneck 1.91961 -11.5272 9.92265
head 5.66383 -4.96974 3.45286
rclavicle 4.1546e-014 -2.38542e-015
rhumerus 30.6263 -3.64351 -41.4544
rradius 56.8739
rwrist 43.8657
rhand -65.1414 2.13853
rfingers 7.12502
rthumb -37.0314 -23.9178
lclavicle 4.1546e-014 -2.38542e-015
lhumerus -36.0446 5.30217 70.0602
lradius 54.3415
lwrist -2.04545
lhand -21.3511 21.6152
lfingers 7.12502
lthumb 5.03536 51.5354
rfemur -13.2639 -4.59022 11.3921
rtibia 25.7314
rfoot -14.5292 -16.524
rtoes 4.58331
lfemur -17.2545 -4.44997 -14.9386
ltibia 24.8317
lfoot -12.3612 -0.500956
ltoes -20.1428
2068
root 2.71139 18.0508 0.583519 7.1252 16.544 -3.62701
lowerback 7.96213 4.38046 -0.560645
upperback 1.49475 5.76433 -0.337538
thorax -2.91862 2.86931 -0.630854
lowerneck -25.1761 -10.7019 -10.8826
upperneck 1.62879 -11.7319 10.0442
head 5.59845 -5.0634 3.49119
rclavicle -3.23025e-014 1.15295e-014
rhumerus 29.3704 -3.39835 -42.062
rradius 56.9704
rwrist 44.842
rhand -64.9707 0.279926
rfingers 7.12502
rthumb -36.87 -25.818
lclavicle -3.23025e-014 1.15295e-014
lhumerus -35.6094 4.95007 70.3095
lradius 54.1665
lwrist -2.13888
lhand -22.0943 18.3071
lfingers 7.12502
lthumb 4.31773 48.2431
rfemur -13.3521 -4.85229 11.4117
rtibia 25.9023
rfoot -14.3306 -16.4024
rtoes 4.77588
lfemur -17.3489 -4.61189 -14.8586
ltibia 24.9152
lfoot -12.407 -0.529608
ltoes -19.849
2069
root 2.71062 18.052 0.582516 7.09475 16.8409 -3.74517
lowerback 7.74151 4.39846 -0.846393
upperback 1.58429 5.76862 -0.315456
thorax -2.73407 2.87476 -0.428697
lowerneck -25.1815 -10.8935 -11.2323
upperneck 1.30255 -11.8857 10.3612
head 5.55225 -5.11749 3.62752
rclavicle 1.0635e-014 2.74323e-014
rhumerus 28.2542 -3.29682 -42.4759
rradius 56.9612
rwrist 45.1708
rhand -65.131 -0.754665
rfingers 7.12502
rthumb -37.0216 -26.8135
lclavicle 1.0635e-014 2.74323e-014
lhumerus -35.1591 4.81255 70.564
lradius 54.0766
lwrist -2.30443
lhand -20.8492 18.7372
lfingers 7.12502
lthumb 5.51994 48.6453
rfemur -13.4107 -5.19393 11.5378
rtibia 26.0972
rfoot -14.2013 -16.3382
rtoes 4.8853
lfemur -17.4652 -4.7685 -14.6986
ltibia 24.9867
lfoot -12.4467 -0.670593
ltoes -20.1246
